<?xml version="1.0" encoding="UTF-8"?>
<svg version="1.1" xmlns="http://www.w3.org/2000/svg" width="328" height="329">
<path d="M0 0 C1.14710449 0.00241699 1.14710449 0.00241699 2.31738281 0.00488281 C8.31533868 0.12907922 14.06434907 0.92592943 19.9375 2.125 C20.72294189 2.28178223 21.50838379 2.43856445 22.31762695 2.60009766 C27.80793213 3.83703216 32.38151089 5.67440313 36.1484375 10.0859375 C38.32303628 14.04482246 39.45061769 16.89168359 38.6875 21.375 C36.59996173 25.25185679 34.91713468 27.86441618 30.6875 29.375 C29.511875 28.1375 29.511875 28.1375 28.3125 26.875 C26.05028736 24.14511494 26.05028736 24.14511494 23.6875 24.375 C24.6775 25.035 25.6675 25.695 26.6875 26.375 C26.6875 27.035 26.6875 27.695 26.6875 28.375 C27.3475 28.375 28.0075 28.375 28.6875 28.375 C29.89136463 31.09795566 31.07565758 33.82684137 32.25 36.5625 C32.59224609 37.33142578 32.93449219 38.10035156 33.28710938 38.89257812 C36.33398482 46.0635072 36.33398482 46.0635072 34.6875 50.375 C34.28789062 51.03628906 33.88828125 51.69757812 33.4765625 52.37890625 C32.40504112 54.4374737 32.40504112 54.4374737 33.5859375 56.77734375 C34.07320312 57.61394531 34.56046875 58.45054688 35.0625 59.3125 C37.12531873 62.88106609 38.13988726 65.21869205 37.6875 69.375 C36.3125 71.1875 36.3125 71.1875 34.6875 72.375 C34.0275 72.375 33.3675 72.375 32.6875 72.375 C32.7184375 74.0146875 32.7184375 74.0146875 32.75 75.6875 C32.6875 79.375 32.6875 79.375 31.6875 82.375 C31.5861807 84.66594194 31.50534458 86.9578225 31.4375 89.25 C30.97700169 95.91004274 30.97700169 95.91004274 28.625 99.6875 C24.81443364 101.87654876 22.0602048 102.15265908 17.6875 102.375 C17.6875 105.675 17.6875 108.975 17.6875 112.375 C18.0175 110.395 18.3475 108.415 18.6875 106.375 C27.70893939 107.90322197 35.86328046 112.19936799 43.53125 117.04296875 C44.2428125 117.48253906 44.954375 117.92210938 45.6875 118.375 C46.285625 118.75398438 46.88375 119.13296875 47.5 119.5234375 C50.66955788 120.7573011 53.83060451 120.71623783 57.1875 120.8125 C73.3940365 121.56855976 87.39483127 126.32828463 99.1875 137.625 C101.6875 140.375 101.6875 140.375 101.6875 142.375 C102.3475 142.375 103.0075 142.375 103.6875 142.375 C103.6875 143.365 103.6875 144.355 103.6875 145.375 C104.3475 145.375 105.0075 145.375 105.6875 145.375 C111.24330866 158.82374715 111.24330866 158.82374715 111.6875 166.375 C112.41324219 166.6328125 113.13898438 166.890625 113.88671875 167.15625 C116.80797667 168.42742499 118.99622649 169.91516402 121.5 171.875 C122.29019531 172.4834375 123.08039063 173.091875 123.89453125 173.71875 C124.48621094 174.2653125 125.07789063 174.811875 125.6875 175.375 C125.6875 176.035 125.6875 176.695 125.6875 177.375 C126.3475 177.375 127.0075 177.375 127.6875 177.375 C135.3852438 185.72008605 140.3605374 194.96721262 144.6875 205.375 C145.09871094 206.35210937 145.50992187 207.32921875 145.93359375 208.3359375 C146.89088096 210.67129752 147.81805496 213.00565925 148.6875 215.375 C149.04199219 216.32890625 149.39648438 217.2828125 149.76171875 218.265625 C151.91328373 225.49197826 151.91226832 232.93916677 148.375 239.6875 C147.18846822 241.61030448 145.95245997 243.50285925 144.6875 245.375 C144.25872559 246.01969238 143.82995117 246.66438477 143.38818359 247.32861328 C131.75381775 264.79025082 131.75381775 264.79025082 123.6875 271.375 C122.93726563 272.14199219 122.18703125 272.90898437 121.4140625 273.69921875 C118.43507457 276.62272409 115.3107132 279.15666035 112 281.6875 C111.41927734 282.14189453 110.83855469 282.59628906 110.24023438 283.06445312 C105.9340343 286.375 105.9340343 286.375 103.6875 286.375 C103.6875 287.035 103.6875 287.695 103.6875 288.375 C72.867842 314.67798398 27.87677679 324.99017978 -11.9296875 322.0625 C-20.216593 321.34965709 -28.35501258 320.11869457 -36.5 318.4375 C-37.26554199 318.27991211 -38.03108398 318.12232422 -38.81982422 317.95996094 C-42.5500374 317.14231263 -46.06372358 316.14718365 -49.625 314.76171875 C-54.52678597 312.91835644 -58.3482735 312.72025783 -63.3125 314.375 C-67.73822565 313.36826182 -72.01124028 311.81635532 -76.3125 310.375 C-78.12041016 309.79492188 -78.12041016 309.79492188 -79.96484375 309.203125 C-88.23644599 306.43694314 -94.82188187 303.15681179 -101.48876953 297.54223633 C-107.71659915 292.30629455 -114.1730379 288.49798873 -121.4375 284.875 C-122.489375 284.33875 -123.54125 283.8025 -124.625 283.25 C-127.18249576 281.94800216 -129.74475266 280.65662633 -132.3125 279.375 C-132.3125 278.715 -132.3125 278.055 -132.3125 277.375 C-132.93125 277.230625 -133.55 277.08625 -134.1875 276.9375 C-136.3125 276.375 -136.3125 276.375 -138.3125 275.375 C-138.3125 274.715 -138.3125 274.055 -138.3125 273.375 C-139.9625 272.715 -141.6125 272.055 -143.3125 271.375 C-143.3125 270.715 -143.3125 270.055 -143.3125 269.375 C-143.9725 269.375 -144.6325 269.375 -145.3125 269.375 C-145.3125 268.715 -145.3125 268.055 -145.3125 267.375 C-145.90804687 267.11074219 -146.50359375 266.84648437 -147.1171875 266.57421875 C-155.22946999 262.14277618 -160.32624918 251.62514792 -165.20703125 244.05322266 C-166.1190934 242.66861241 -167.08419082 241.31909269 -168.0625 239.98046875 C-171.74251846 234.84726119 -172.20078208 230.59837893 -171.3125 224.375 C-169.86241886 219.64220228 -168.06988409 215.10934104 -166.14282227 210.55297852 C-165.25655451 208.45303045 -164.4008817 206.34254292 -163.54882812 204.22851562 C-160.26556308 196.21442346 -156.78809757 188.17599332 -151.3125 181.375 C-150.6525 181.375 -149.9925 181.375 -149.3125 181.375 C-149.09335938 180.82199219 -148.87421875 180.26898438 -148.6484375 179.69921875 C-146.8676197 176.60101234 -144.57995669 174.58554716 -141.9375 172.1875 C-140.50277344 170.86685547 -140.50277344 170.86685547 -139.0390625 169.51953125 C-136.60532937 167.60531995 -135.32280685 166.73880486 -132.3125 166.375 C-132.14234375 165.68535156 -131.9721875 164.99570313 -131.796875 164.28515625 C-128.22947233 150.45198312 -122.33158079 138.76713506 -110.3125 130.375 C-101.19793342 125.14078691 -92.67808966 121.26232287 -82.07275391 121.1496582 C-73.48249105 121.05045668 -68.34916213 119.46231654 -61.3125 114.375 C-59.53520541 113.36998222 -57.7427422 112.39140639 -55.9375 111.4375 C-55.03386719 110.9425 -54.13023438 110.4475 -53.19921875 109.9375 C-51.15241807 108.82962413 -49.09079761 107.74893187 -47.01953125 106.6875 C-40.76137566 103.51311724 -40.76137566 103.51311724 -36.625 98.125 C-36.4703125 96.26875 -36.4703125 96.26875 -36.3125 94.375 C-36.21066406 93.52679688 -36.10882813 92.67859375 -36.00390625 91.8046875 C-35.68699734 88.99554436 -35.49255385 86.19584364 -35.3125 83.375 C-35.22355469 82.62089844 -35.13460937 81.86679688 -35.04296875 81.08984375 C-34.56938645 75.02138219 -36.70626523 70.95914028 -39.70703125 65.7578125 C-43.69652814 57.35171929 -44.83728766 49.03970742 -44.8125 39.8125 C-44.84085937 38.84892578 -44.86921875 37.88535156 -44.8984375 36.89257812 C-44.9212368 28.43973693 -42.04208401 22.72211527 -37.625 15.6875 C-27.48748286 5.54998286 -14.28064676 -0.03209134 0 0 Z M32.6875 16.375 C33.6875 18.375 33.6875 18.375 33.6875 18.375 Z M10.6875 19.375 C14.6875 20.375 14.6875 20.375 14.6875 20.375 Z M15.6875 113.375 C16.6875 115.375 16.6875 115.375 16.6875 115.375 Z M-77.3125 189.375 C-76.6525 190.035 -75.9925 190.695 -75.3125 191.375 C-75.3125 190.715 -75.3125 190.055 -75.3125 189.375 C-75.9725 189.375 -76.6325 189.375 -77.3125 189.375 Z M-74.3125 192.375 C-72.85994301 196.20446843 -70.88354439 197.49550295 -67.3125 199.375 C-67.9725 198.055 -68.6325 196.735 -69.3125 195.375 C-69.9725 195.375 -70.6325 195.375 -71.3125 195.375 C-71.3125 194.715 -71.3125 194.055 -71.3125 193.375 C-72.3025 193.045 -73.2925 192.715 -74.3125 192.375 Z M77.6875 195.375 C78.6875 197.375 78.6875 197.375 78.6875 197.375 Z M73.6875 201.375 C70.77836941 204.28413059 71.17451072 207.51863009 70.875 211.4375 C70.28429994 217.9028158 69.17965706 223.82272975 67.1875 230 C63.06882062 242.9531868 62.33744649 255.83959748 62.6875 269.375 C66.95316261 271.50783131 72.07695034 271.08199123 76.6875 270.375 C79.63767792 268.59543376 81.03744369 266.3555779 82.6875 263.375 C83.12449219 262.61058594 83.56148437 261.84617187 84.01171875 261.05859375 C87.22223454 254.74361525 88.71178847 248.32681827 90.1574707 241.45288086 C91.38848772 235.89480452 93.45710493 232.08214711 96.6875 227.375 C96.5240213 224.5904128 95.93091001 223.60824564 93.91015625 221.671875 C93.19730469 221.16140625 92.48445313 220.6509375 91.75 220.125 C91.03972656 219.60421875 90.32945312 219.0834375 89.59765625 218.546875 C87.7768713 217.20069004 87.7768713 217.20069004 85.6875 217.375 C85.41679687 216.78589844 85.14609375 216.19679687 84.8671875 215.58984375 C83.70224061 213.40267525 82.45648785 211.78166253 80.8125 209.9375 C78.35534725 207.14309099 75.99106496 204.29875553 73.6875 201.375 Z M-94.3125 209.375 C-95.6607881 210.75639338 -96.99067378 212.1557648 -98.3125 213.5625 C-103.4245922 218.71522887 -108.45040814 223.03622001 -115.875 223.6875 C-117.0815625 223.5328125 -117.0815625 223.5328125 -118.3125 223.375 C-117.76722656 224.04982422 -117.76722656 224.04982422 -117.2109375 224.73828125 C-111.35889469 232.225895 -107.07102867 240.04903082 -103.875 249 C-101.61147818 255.09632235 -98.72717422 259.62660311 -94.3125 264.375 C-93.76722656 264.99632812 -93.22195312 265.61765625 -92.66015625 266.2578125 C-89.42361135 269.5324344 -87.01499136 270.76722509 -82.375 270.9375 C-77.56712973 270.65035308 -73.69407445 269.32236642 -69.3125 267.375 C-69.57474846 263.03409781 -69.91707889 258.7058026 -70.3125 254.375 C-70.40015625 253.3746875 -70.4878125 252.374375 -70.578125 251.34375 C-71.36901667 245.22293624 -72.96205991 241.97338953 -77.24609375 237.58203125 C-84.99592987 229.30479608 -89.82023287 220.09748852 -93.3125 209.375 C-93.6425 209.375 -93.9725 209.375 -94.3125 209.375 Z " fill="#23231D" transform="translate(173.3125,3.625)"/>
<path d="M0 0 C0.57283489 4.4836518 1.14240623 8.9677017 1.70898438 13.45214844 C1.90210217 14.97700133 2.09610436 16.5017425 2.29101562 18.02636719 C2.57135011 20.22041363 2.8484803 22.41484492 3.125 24.609375 C3.21249512 25.2886908 3.29999023 25.96800659 3.39013672 26.66790771 C3.78479557 29.82368959 4 32.81010846 4 36 C42.115 36.495 42.115 36.495 81 37 C76.77816451 25.0407461 76.77816451 25.0407461 71.3125 13.875 C70.53758841 12.45582307 69.76284302 11.03655538 68.98828125 9.6171875 C68.65352783 9.01503418 68.31877441 8.41288086 67.97387695 7.79248047 C66.93646843 5.88306623 65.96186698 3.94840409 65 2 C74.87443588 5.87594679 79.04955271 11.45589438 84.04492188 20.328125 C85.29949277 22.52426547 86.69056778 24.62571785 88.0625 26.75 C96.78619874 41.49256352 102.37458883 56.83798168 103 74 C103.03254883 74.6904541 103.06509766 75.3809082 103.09863281 76.09228516 C103.54991795 86.4011875 102.6261368 95.08542137 99.57763672 105.03125 C98.51466971 108.65414348 97.65883646 112.32150969 96.8125 116 C96.64588867 116.67482422 96.47927734 117.34964844 96.30761719 118.04492188 C92.43207095 134.99546293 93.95181372 153.20826175 94.17138672 170.45629883 C94.21345334 173.95657241 94.23705516 177.45657568 94.2578125 180.95703125 C94.28574387 182.57711845 94.28574387 182.57711845 94.3142395 184.22993469 C94.31942093 185.71870369 94.31942093 185.71870369 94.32470703 187.23754883 C94.33922409 188.54868401 94.33922409 188.54868401 94.35403442 189.88630676 C94.17878738 190.93258492 94.17878738 190.93258492 94 192 C71.39758149 207.06827901 26.88432086 201.53307081 1.74707031 196.62255859 C-2.57344328 195.64341625 -6.7894277 194.37135439 -11 193 C-10.34 192.67 -9.68 192.34 -9 192 C-8.30341637 190.34561387 -7.63903117 188.67745682 -7 187 C-5 184 -5 184 -2.9375 183.1875 C-0.70935112 182.10544119 -0.70935112 182.10544119 -0.0625 179.25 C0.05826135 172.97040985 -3.75303628 168.78352225 -7.8125 164.3125 C-8.64394531 163.38050781 -9.47539063 162.44851563 -10.33203125 161.48828125 C-12.871383 158.84074379 -12.871383 158.84074379 -16.234375 157.6015625 C-19 156 -19 156 -19.99609375 152.91015625 C-20.14175781 151.64042969 -20.28742188 150.37070312 -20.4375 149.0625 C-21.65520807 140.41243453 -24.38108852 132.57527496 -27.37890625 124.3984375 C-27.65428223 123.63523193 -27.9296582 122.87202637 -28.21337891 122.08569336 C-28.88343411 120.30906965 -29.64916149 118.5690146 -30.43359375 116.83984375 C-31.23875451 112.80293429 -29.5726222 110.50209125 -27.5 107.1875 C-20.62854568 95.29247759 -16.5982122 82.46634373 -14 69 C-13.8460376 68.24187012 -13.6920752 67.48374023 -13.53344727 66.70263672 C-11.99645753 58.80667139 -11.17812581 50.87909225 -10.4375 42.875 C-10.30621673 41.49348346 -10.17486862 40.11197309 -10.04345703 38.73046875 C-9.24854261 30.26463016 -8.58888071 21.8072235 -8.2109375 13.3125 C-7.98800478 9.81163059 -7.68025729 6.44353843 -7 3 C-4.58235424 1.07828158 -3.11532786 0 0 0 Z " fill="#F8E6D1" transform="translate(133,116)"/>
<path d="M0 0 C11.58457722 -1.6758401 11.58457722 -1.6758401 17 0 C21.45062261 3.51903592 23.70822653 8.9478111 26 14 C26.66496653 15.33418205 27.33064381 16.66801482 28 18 C30.3368955 15.30826137 32.03841722 12.91703825 33.54296875 9.66796875 C35.45006298 5.63181446 36.80098429 3.14035957 40 0 C45.51731205 -1.61391664 51.39276596 -0.74550725 57 0 C57.02505615 0.72477539 57.0501123 1.44955078 57.07592773 2.19628906 C57.19348617 5.54763745 57.31547303 8.89881146 57.4375 12.25 C57.47681641 13.38953125 57.51613281 14.5290625 57.55664062 15.703125 C57.761693 21.25531234 58.03731362 26.77795816 58.53125 32.3125 C58.9599028 37.14254857 59.12326518 41.90384237 59.0625 46.75 C59.041875 49.1425 59.02125 51.535 59 54 C53.72 54 48.44 54 43 54 C42.67 44.76 42.34 35.52 42 26 C38.13300888 32.24808919 38.13300888 32.24808919 34.28173828 38.50585938 C33.79946777 39.27736328 33.31719727 40.04886719 32.8203125 40.84375 C32.32805176 41.63974609 31.83579102 42.43574219 31.32861328 43.25585938 C30.8901709 43.83142578 30.45172852 44.40699219 30 45 C29.34 45 28.68 45 28 45 C26.24728296 42.59297475 24.60768146 40.18859301 23 37.6875 C22.32324219 36.65206055 22.32324219 36.65206055 21.6328125 35.59570312 C20.78982132 34.30502876 19.94968115 33.01248476 19.11328125 31.7175293 C18.08849818 30.13653173 17.04509604 28.56764406 16 27 C15.67 35.91 15.34 44.82 15 54 C9.72 54 4.44 54 -1 54 C-1.1347499 35.9734584 -0.76623376 18.01056911 0 0 Z " fill="#252620" transform="translate(153,171)"/>
<path d="M0 0 C0.5775 0.2475 1.155 0.495 1.75 0.75 C1.481875 1.86375 1.21375 2.9775 0.9375 4.125 C0.21775525 9.82213448 2.65153092 14.10229638 5.75 18.75 C8.20320412 21.25025574 8.20320412 21.25025574 10.75 22.75 C12.235 23.74 12.235 23.74 13.75 24.75 C13.09 24.75 12.43 24.75 11.75 24.75 C11.09 28.05 10.43 31.35 9.75 34.75 C8.265 35.245 8.265 35.245 6.75 35.75 C3.37331368 41.16727373 3.0496691 46.3777094 2.47265625 52.60546875 C1.75 55.75 1.75 55.75 -0.12890625 57.67578125 C-2.25 58.75 -2.25 58.75 -5.25 58.75 C-5.58 60.07 -5.91 61.39 -6.25 62.75 C-6.25 62.09 -6.25 61.43 -6.25 60.75 C-10.21 62.73 -10.21 62.73 -14.25 64.75 C-13.59 65.74 -12.93 66.73 -12.25 67.75 C-14.91666667 67.75 -17.58333333 67.75 -20.25 67.75 C-20.25 66.76 -20.25 65.77 -20.25 64.75 C-19.72043701 64.48896484 -19.19087402 64.22792969 -18.64526367 63.95898438 C-16.22849581 62.74887853 -13.8337474 61.50021604 -11.4375 60.25 C-10.60412109 59.84007812 -9.77074219 59.43015625 -8.91210938 59.0078125 C-4.78983718 56.82251158 -1.96903506 55.20102984 -0.21875 50.74609375 C1.16976243 45.78770593 1.48509616 40.87147415 1.75 35.75 C1.83765625 34.9971875 1.9253125 34.244375 2.015625 33.46875 C2.51369303 27.22026023 0.14497053 22.97923783 -2.78125 17.5546875 C-5.21754337 12.90240388 -6.25 9.04930072 -6.25 3.75 C-3.14750693 -0.34972299 -3.14750693 -0.34972299 0 0 Z " fill="#231F16" transform="translate(136.25,51.25)"/>
<path d="M0 0 C-0.3125 1.875 -0.3125 1.875 -1 4 C-1.99 4.66 -2.98 5.32 -4 6 C-3.0925 5.79375 -2.185 5.5875 -1.25 5.375 C2.21546863 4.97513823 3.09470856 5.34524705 6 7 C-9.43984256 10.80000904 -24.63928035 13.10699236 -40.5625 13.25 C-41.2831665 13.2593457 -42.00383301 13.26869141 -42.74633789 13.27832031 C-47.75334261 13.24665739 -47.75334261 13.24665739 -50 11 C-43.73 10.67 -37.46 10.34 -31 10 C-30.67 9.34 -30.34 8.68 -30 8 C-25.05 8.33 -20.1 8.66 -15 9 C-15.495 7.515 -15.495 7.515 -16 6 C-17.98 6 -19.96 6 -22 6 C-22 5.01 -22 4.02 -22 3 C-22.66 2.67 -23.32 2.34 -24 2 C-20.56416794 1.46773826 -17.12615705 0.95116762 -13.6875 0.4375 C-12.22280273 0.21030273 -12.22280273 0.21030273 -10.72851562 -0.02148438 C-9.79072266 -0.16005859 -8.85292969 -0.29863281 -7.88671875 -0.44140625 C-7.02264404 -0.57232666 -6.15856934 -0.70324707 -5.26831055 -0.83813477 C-3 -1 -3 -1 0 0 Z " fill="#2A2921" transform="translate(214,313)"/>
<path d="M0 0 C10.53701937 4.1360263 14.75968844 10.53161728 20 20 C20.55042969 20.96035156 21.10085937 21.92070312 21.66796875 22.91015625 C22.80856495 24.92616803 23.92105412 26.95054501 25 29 C24.34 29.33 23.68 29.66 23 30 C22.34 29.34 21.68 28.68 21 28 C20.67 28.66 20.34 29.32 20 30 C19.38125 29.814375 18.7625 29.62875 18.125 29.4375 C15.95839822 28.76313824 15.95839822 28.76313824 14 30 C13.731875 29.22398437 13.46375 28.44796875 13.1875 27.6484375 C10.36426066 19.86595537 6.90988688 12.98437694 2.671875 5.8984375 C1 3 1 3 0 0 Z " fill="#EADCCB" transform="translate(198,118)"/>
<path d="M0 0 C3.68451103 3.43887696 5.7158312 5.82137253 6.375 10.875 C5.89541545 14.87153796 4.53260567 16.90459308 2 20 C-0.25 21.375 -0.25 21.375 -2 22 C-2.763125 21.195625 -3.52625 20.39125 -4.3125 19.5625 C-6.79430898 16.83200976 -6.79430898 16.83200976 -10 16 C-9.1875 14.0625 -9.1875 14.0625 -8 12 C-7.01 11.67 -6.02 11.34 -5 11 C-5.33 10.01 -5.66 9.02 -6 8 C-5.01 8 -4.02 8 -3 8 C-2.67 6.68 -2.34 5.36 -2 4 C-0.35 5.65 1.3 7.3 3 9 C2.01 6.03 1.02 3.06 0 0 Z M0 9 C1 11 1 11 1 11 Z " fill="#201C17" transform="translate(206,11)"/>
<path d="M0 0 C0.66 0.66 1.32 1.32 2 2 C1.63916345 4.52585582 0.73683644 6.67868498 -0.1875 9.0625 C-0.455625 10.031875 -0.72375 11.00125 -1 12 C-0.01 13.485 -0.01 13.485 1 15 C0.01 16.485 0.01 16.485 -1 18 C-1.66 18 -2.32 18 -3 18 C-3.05422947 19.4370809 -3.09289723 20.87475462 -3.125 22.3125 C-3.15980469 23.51326172 -3.15980469 23.51326172 -3.1953125 24.73828125 C-3.15817322 27.28388576 -3.15817322 27.28388576 -1 30 C-0.34 30.33 0.32 30.66 1 31 C0.67 32.32 0.34 33.64 0 35 C0.66 35 1.32 35 2 35 C3.6875 36.8125 3.6875 36.8125 5 39 C4.67 39.99 4.34 40.98 4 42 C-1.43235851 36.83204832 -7.26261355 30.14964532 -7.875 22.375 C-7.34304145 14.5729413 -3.19274803 7.02078776 0 0 Z " fill="#553415" transform="translate(9,211)"/>
<path d="M0 0 C9.70990657 -0.41763039 18.89465103 -0.18602174 28.4375 1.8125 C29.24743408 1.97782227 30.05736816 2.14314453 30.8918457 2.31347656 C34.84646591 3.20828995 37.31476274 3.96241305 40 7 C39.01 7 38.02 7 37 7 C33.81540914 7.23310631 30.63142688 7.4687532 27.44921875 7.73242188 C24.26772148 7.96773972 22.06145693 8.02048564 19 7 C19 6.34 19 5.68 19 5 C18.01 5 17.02 5 16 5 C16 4.34 16 3.68 16 3 C10.72 2.67 5.44 2.34 0 2 C0 1.34 0 0.68 0 0 Z " fill="#482D13" transform="translate(165,4)"/>
<path d="M0 0 C2.96604634 3.09500487 3.43092367 5.81850333 3.81640625 10.02734375 C4.03660971 12.39335964 4.49257101 14.68032461 5 17 C4.34 17.33 3.68 17.66 3 18 C3.00523682 18.6612085 3.01047363 19.32241699 3.01586914 20.00366211 C3.03657656 22.98159851 3.04964012 25.95951982 3.0625 28.9375 C3.07087891 29.97841797 3.07925781 31.01933594 3.08789062 32.09179688 C3.09111328 33.08115234 3.09433594 34.07050781 3.09765625 35.08984375 C3.10289307 36.00628662 3.10812988 36.92272949 3.11352539 37.86694336 C3 40 3 40 2 41 C0.33382885 41.04063832 -1.33388095 41.042721 -3 41 C-1.68 40.34 -0.36 39.68 1 39 C0.5831016 32.29671251 0.00325545 25.73945448 -1.1875 19.125 C-2.04631507 13.91569107 -1.79939889 10.89836364 0 6 C0.16847091 2.70780572 0.16847091 2.70780572 0 0 Z " fill="#432E18" transform="translate(102,232)"/>
<path d="M0 0 C0.33 0 0.66 0 1 0 C1.0543965 2.37531394 1.09385864 4.74935883 1.125 7.125 C1.14175781 7.79015625 1.15851563 8.4553125 1.17578125 9.140625 C1.21840499 13.48824616 0.78305338 17.02060273 -1 21 C-4 23 -4 23 -7 23 C-7.33 24.32 -7.66 25.64 -8 27 C-8 26.34 -8 25.68 -8 25 C-11.96 26.98 -11.96 26.98 -16 29 C-15.34 29.99 -14.68 30.98 -14 32 C-16.66666667 32 -19.33333333 32 -22 32 C-22 31.01 -22 30.02 -22 29 C-21.20565552 28.60844727 -21.20565552 28.60844727 -20.39526367 28.20898438 C-17.97849581 26.99887853 -15.5837474 25.75021604 -13.1875 24.5 C-12.35412109 24.09007813 -11.52074219 23.68015625 -10.66210938 23.2578125 C-6.56127288 21.08387508 -3.72137522 19.45893478 -1.96875 15.03125 C-1.03901463 11.71821067 -0.52734695 8.43755113 -0.3125 5 C-0.24675781 4.05125 -0.18101562 3.1025 -0.11328125 2.125 C-0.07589844 1.42375 -0.03851563 0.7225 0 0 Z " fill="#3E2513" transform="translate(138,87)"/>
<path d="M0 0 C5.06998019 0.65419099 9.41990777 2.8546409 14 5 C13.67 5.99 13.34 6.98 13 8 C13.66 8.66 14.32 9.32 15 10 C14.67 10.99 14.34 11.98 14 13 C12.948125 12.319375 11.89625 11.63875 10.8125 10.9375 C8.09672991 9.3643405 7.29522026 8.97487487 4.0625 9.25 C3.381875 9.4975 2.70125 9.745 2 10 C2 8.68 2 7.36 2 6 C2.99 5.67 3.98 5.34 5 5 C4.01 4.01 3.02 3.02 2 2 C1.67 3.32 1.34 4.64 1 6 C0.67 6 0.34 6 0 6 C0 4.02 0 2.04 0 0 Z " fill="#282218" transform="translate(192,110)"/>
<path d="M0 0 C5.94 0.33 11.88 0.66 18 1 C18 1.66 18 2.32 18 3 C8.48775045 4.16945329 -0.96931802 5.1998996 -10.5625 5.25 C-11.64132446 5.26353516 -11.64132446 5.26353516 -12.74194336 5.27734375 C-17.75183655 5.24816345 -17.75183655 5.24816345 -20 3 C-13.73 2.67 -7.46 2.34 -1 2 C-0.67 1.34 -0.34 0.68 0 0 Z " fill="#5E3A15" transform="translate(184,321)"/>
<path d="M0 0 C2.86724686 0.57344937 3.8614515 0.8614515 6 3 C6.103125 3.66 6.20625 4.32 6.3125 5 C6.81235872 7.20426006 6.81235872 7.20426006 9.0625 8.0625 C10.031875 8.371875 11.00125 8.68125 12 9 C13.43966847 9.5358766 14.87709178 10.07781424 16.3125 10.625 C17.529375 11.07875 18.74625 11.5325 20 12 C19.67 12.66 19.34 13.32 19 14 C14.38 14 9.76 14 5 14 C5 13.34 5 12.68 5 12 C5.99 12 6.98 12 8 12 C8 11.34 8 10.68 8 10 C6.824375 9.566875 6.824375 9.566875 5.625 9.125 C3 8 3 8 1 6 C0.60235737 4.01178687 0.26224651 2.01055661 0 0 Z " fill="#593B1E" transform="translate(155,89)"/>
<path d="M0 0 C5.63281599 -0.2396943 10.54538831 0.61470179 16 2 C16 2.66 16 3.32 16 4 C16.9178125 4.03738281 17.835625 4.07476562 18.78125 4.11328125 C25.78774653 4.48862928 31.60688626 5.05916768 38 8 C38 8.33 38 8.66 38 9 C32.53391995 9.22237334 27.89662984 8.46535546 22.625 7.0625 C21.90183594 6.88009766 21.17867187 6.69769531 20.43359375 6.50976562 C15.14560288 5.14560288 15.14560288 5.14560288 14 4 C10.33655389 3.86431681 7.49384279 3.83538574 4 5 C3.01 4.34 2.02 3.68 1 3 C1.33 2.67 1.66 2.34 2 2 C1.34 1.34 0.68 0.68 0 0 Z " fill="#5A3511" transform="translate(106,313)"/>
<path d="M0 0 C0.33 0 0.66 0 1 0 C1.05447047 1.41623216 1.09300508 2.83308191 1.125 4.25 C1.14820313 5.03890625 1.17140625 5.8278125 1.1953125 6.640625 C0.9828378 9.20731941 0.28654105 10.7916067 -1 13 C-1.66 13 -2.32 13 -3 13 C-3.226875 13.598125 -3.45375 14.19625 -3.6875 14.8125 C-5.33935661 17.56559434 -7.23852733 18.44224619 -10 20 C-10.33 20.66 -10.66 21.32 -11 22 C-11.99 21.67 -12.98 21.34 -14 21 C-13.34 21 -12.68 21 -12 21 C-11.77441406 20.34644531 -11.54882812 19.69289062 -11.31640625 19.01953125 C-9.56066124 14.99225856 -7.280511 11.39588657 -4.9375 7.6875 C-4.47794922 6.94693359 -4.01839844 6.20636719 -3.54492188 5.44335938 C-2.39382383 3.60937791 -1.20060244 1.8019624 0 0 Z " fill="#EADFD1" transform="translate(195,195)"/>
<path d="M0 0 C3.7078301 3.46064142 5.76860066 5.82484616 6.3125 10.9375 C5.96117506 14.38048438 5.03523244 16.23208388 3 19 C2.67 19 2.34 19 2 19 C2 17.35 2 15.7 2 14 C1.01 13.67 0.02 13.34 -1 13 C-1.73046875 10.93359375 -1.73046875 10.93359375 -2.1875 8.4375 C-2.34605469 7.61121094 -2.50460938 6.78492188 -2.66796875 5.93359375 C-2.77753906 5.29550781 -2.88710937 4.65742188 -3 4 C-1.02 5.65 0.96 7.3 3 9 C2.01 6.03 1.02 3.06 0 0 Z M0 9 C1 11 1 11 1 11 Z " fill="#62381D" transform="translate(206,11)"/>
<path d="M0 0 C0.33 0 0.66 0 1 0 C1 3.63 1 7.26 1 11 C1.66 11.33 2.32 11.66 3 12 C3 12.99 3 13.98 3 15 C2.34 15 1.68 15 1 15 C0.01 16.2375 0.01 16.2375 -1 17.5 C-1.99 18.7375 -1.99 18.7375 -3 20 C-3.66 20 -4.32 20 -5 20 C-5 20.66 -5 21.32 -5 22 C-5.99 22.33 -6.98 22.66 -8 23 C-7.72285156 22.3090625 -7.44570312 21.618125 -7.16015625 20.90625 C-5.90992598 17.77436002 -4.66647362 14.64030274 -3.4375 11.5 C-3.00308594 10.3965625 -2.56867188 9.293125 -2.12109375 8.15625 C-1.14946835 5.42080288 -0.47434198 2.85671123 0 0 Z " fill="#3B2915" transform="translate(262,247)"/>
<path d="M0 0 C1.9375 0.375 1.9375 0.375 4 1 C4.33 1.66 4.66 2.32 5 3 C5.66 2.67 6.32 2.34 7 2 C8.20577428 6.94367454 7.6290678 10.20862412 6 15 C4 12 4 12 4 10 C3.34 10 2.68 10 2 10 C1.67 9.01 1.34 8.02 1 7 C0.01 7 -0.98 7 -2 7 C-2 5.68 -2 4.36 -2 3 C-1.34 2.67 -0.68 2.34 0 2 C0 1.34 0 0.68 0 0 Z " fill="#21231D" transform="translate(95,230)"/>
<path d="M0 0 C2.52264731 2.52264731 2.30782651 4.34910553 2.65625 7.77734375 C3.34843019 12.25291795 5.21427391 16.38719382 7.1875 20.4375 C8.40143568 24.26606637 8.15621931 28.0164077 8 32 C7.67 32 7.34 32 7 32 C6.91363281 31.39414063 6.82726562 30.78828125 6.73828125 30.1640625 C5.74806471 24.25910149 3.98144661 19.59622121 1.17578125 14.32421875 C-1.06081294 9.90304418 -2 5.99468426 -2 1 C-1.34 0.67 -0.68 0.34 0 0 Z " fill="#4D3310" transform="translate(132,54)"/>
<path d="M0 0 C3.34166111 3.20799467 6.32555088 6.66490415 9.31640625 10.1953125 C11.74476949 12.79833759 13.32744063 13.95498264 16.91796875 14.1953125 C17.99691406 14.17210937 19.07585937 14.14890625 20.1875 14.125 C21.27417969 14.10695313 22.36085938 14.08890625 23.48046875 14.0703125 C24.31191406 14.04710937 25.14335938 14.02390625 26 14 C25.67 14.66 25.34 15.32 25 16 C21.83984375 16.4140625 21.83984375 16.4140625 17.9375 16.625 C16.64714844 16.69976562 15.35679688 16.77453125 14.02734375 16.8515625 C13.02832031 16.90054687 12.02929688 16.94953125 11 17 C11 16.01 11 15.02 11 14 C9.68 14.33 8.36 14.66 7 15 C5.82823482 12.87767021 4.66245215 10.75242209 3.5 8.625 C3.16613281 8.02171875 2.83226563 7.4184375 2.48828125 6.796875 C0 2.2265625 0 2.2265625 0 0 Z " fill="#512C13" transform="translate(72,259)"/>
<path d="M0 0 C1.98608946 2.97913419 3.06830564 5.57133543 4.25 8.9375 C4.62640625 9.97777344 5.0028125 11.01804688 5.390625 12.08984375 C6 15 6 15 5.109375 17.37890625 C4.56023437 18.18134766 4.56023437 18.18134766 4 19 C3.01 19 2.02 19 1 19 C-0.10844919 15.67465243 0.15545644 13.37817425 1 10 C0.01 9.67 -0.98 9.34 -2 9 C-1.67 8.01 -1.34 7.02 -1 6 C-0.67 6.33 -0.34 6.66 0 7 C0.33 6.01 0.66 5.02 1 4 C0.34 3.67 -0.32 3.34 -1 3 C-0.67 2.01 -0.34 1.02 0 0 Z " fill="#2C2D27" transform="translate(106,241)"/>
<path d="M0 0 C1.32 0.66 2.64 1.32 4 2 C-1.15986225 5.55707125 -6.68345838 9.09051768 -13 10 C-13.99 9.34 -14.98 8.68 -16 8 C-14.35 8 -12.7 8 -11 8 C-11.66 6.35 -12.32 4.7 -13 3 C-8.66666667 3 -4.33333333 3 0 3 C0 2.01 0 1.02 0 0 Z " fill="#242018" transform="translate(259,300)"/>
<path d="M0 0 C0.33 0.66 0.66 1.32 1 2 C0.01 2.99 -0.98 3.98 -2 5 C-2.66 4.67 -3.32 4.34 -4 4 C-4 4.66 -4 5.32 -4 6 C-10.6 5.67 -17.2 5.34 -24 5 C-20.20581315 2.4705421 -16.96883644 2.62578962 -12.5625 2.5 C-5.97226205 2.48353699 -5.97226205 2.48353699 0 0 Z " fill="#6B3F1B" transform="translate(106,122)"/>
<path d="M0 0 C0.66 0 1.32 0 2 0 C2.061875 0.61875 2.12375 1.2375 2.1875 1.875 C2.81740446 4.27117929 2.81740446 4.27117929 5.5 5.125 C6.7375 5.558125 6.7375 5.558125 8 6 C8.33 6.66 8.66 7.32 9 8 C9.33 8.33 9.66 8.66 10 9 C10.36162029 10.32594105 10.69728039 11.65938457 11 13 C11.66 13 12.32 13 13 13 C13.33 14.65 13.66 16.3 14 18 C8.12274848 13.44213147 3.79918285 8.42050355 0 2 C0 1.34 0 0.68 0 0 Z " fill="#573119" transform="translate(86,227)"/>
<path d="M0 0 C4.08281587 1.07442523 7.01909527 2.68274245 10.4375 5.0625 C16.94453587 9.15804631 23.48895683 8.97997055 31 9 C31 9.33 31 9.66 31 10 C28.31139069 10.10887507 25.62726842 10.18770594 22.9375 10.25 C22.18533203 10.28351563 21.43316406 10.31703125 20.65820312 10.3515625 C14.93545282 10.45065774 11.74451107 9.20081225 7 6 C7 5.34 7 4.68 7 4 C5.02 4.33 3.04 4.66 1 5 C0.67 3.35 0.34 1.7 0 0 Z " fill="#764821" transform="translate(207,116)"/>
<path d="M0 0 C0.78375 0.350625 1.5675 0.70125 2.375 1.0625 C3.24125 1.371875 4.1075 1.68125 5 2 C5.66 1.67 6.32 1.34 7 1 C8.99960012 0.960008 11.00047242 0.95653201 13 1 C10.45079818 2.69946788 8.67900436 3.56531331 5.83984375 4.5078125 C5.04642578 4.77207031 4.25300781 5.03632813 3.43554688 5.30859375 C2.61119141 5.57800781 1.78683594 5.84742188 0.9375 6.125 C0.10927734 6.40214844 -0.71894531 6.67929687 -1.57226562 6.96484375 C-7.73287408 9 -7.73287408 9 -10 9 C-9.67 8.01 -9.34 7.02 -9 6 C-7.35 6 -5.7 6 -4 6 C-4 5.34 -4 4.68 -4 4 C-2.02 4 -0.04 4 2 4 C1.34 2.68 0.68 1.36 0 0 Z " fill="#4B2D11" transform="translate(230,310)"/>
<path d="M0 0 C0.66 0 1.32 0 2 0 C2.33 1.32 2.66 2.64 3 4 C4.32 3.67 5.64 3.34 7 3 C7 4.98 7 6.96 7 9 C5.68 9.33 4.36 9.66 3 10 C3.33 8.68 3.66 7.36 4 6 C3.071875 6.99 3.071875 6.99 2.125 8 C0 10 0 10 -2 10 C-2 10.66 -2 11.32 -2 12 C-2.66 12 -3.32 12 -4 12 C-2.25 6.25 -2.25 6.25 0 4 C0 2.68 0 1.36 0 0 Z " fill="#3B2A12" transform="translate(269,227)"/>
<path d="M0 0 C0.66 0.66 1.32 1.32 2 2 C1.63916345 4.52585582 0.73683644 6.67868498 -0.1875 9.0625 C-0.455625 10.031875 -0.72375 11.00125 -1 12 C-0.01 13.485 -0.01 13.485 1 15 C0.01 16.485 0.01 16.485 -1 18 C-1.66 18 -2.32 18 -3 18 C-5 15 -5 15 -4.75390625 12.64453125 C-3.97234297 9.90298544 -3.0263205 7.32174314 -1.9375 4.6875 C-1.39416016 3.36298828 -1.39416016 3.36298828 -0.83984375 2.01171875 C-0.56269531 1.34785156 -0.28554687 0.68398437 0 0 Z " fill="#362717" transform="translate(9,211)"/>
<path d="M0 0 C2.37202385 0.38860816 3.69347107 0.69262431 5.4140625 2.41796875 C7.98196511 6.17041998 9.80628882 9.55071287 11 14 C10.01 14 9.02 14 8 14 C8 12.68 8 11.36 8 10 C6.35 9.67 4.7 9.34 3 9 C3 7.35 3 5.7 3 4 C2.01 4 1.02 4 0 4 C0 2.68 0 1.36 0 0 Z " fill="#3D2714" transform="translate(55,230)"/>
<path d="M0 0 C2.87116381 2.87116381 3.95178818 6.11412904 5 10 C4.89002457 14.83891911 3.71874536 15.28125464 0 19 C0 12.73 0 6.46 0 0 Z " fill="#5E3415" transform="translate(204,39)"/>
<path d="M0 0 C0.33 0 0.66 0 1 0 C1.08112454 2.58396679 1.14054748 5.16537568 1.1875 7.75 C1.22520508 8.84441406 1.22520508 8.84441406 1.26367188 9.9609375 C1.308764 13.2676931 1.22638385 15.58932057 -0.38671875 18.515625 C-2 20 -2 20 -4 20 C-4 19.34 -4 18.68 -4 18 C-3.34 18 -2.68 18 -2 18 C-1.93941406 16.86820313 -1.87882813 15.73640625 -1.81640625 14.5703125 C-1.73200083 13.08852855 -1.64735283 11.6067584 -1.5625 10.125 C-1.52318359 9.37863281 -1.48386719 8.63226563 -1.44335938 7.86328125 C-1.11328125 2.2265625 -1.11328125 2.2265625 0 0 Z " fill="#613F18" transform="translate(203,84)"/>
<path d="M0 0 C0.33 0 0.66 0 1 0 C1.0543965 2.37531394 1.09385864 4.74935883 1.125 7.125 C1.14175781 7.79015625 1.15851563 8.4553125 1.17578125 9.140625 C1.21847278 13.49516056 0.59996217 16.95600114 -1 21 C-3.31 21.33 -5.62 21.66 -8 22 C-6.824375 21.2265625 -6.824375 21.2265625 -5.625 20.4375 C-0.02002494 15.2328803 -0.49626137 7.22190882 0 0 Z " fill="#663E16" transform="translate(138,87)"/>
<path d="M0 0 C1.67542976 0.28604898 3.34385343 0.61781233 5 1 C5 1.66 5 2.32 5 3 C5.66 3.33 6.32 3.66 7 4 C5.68 4.33 4.36 4.66 3 5 C3 6.98 3 8.96 3 11 C2.34 11 1.68 11 1 11 C-0.59555725 7.50971852 -1.32049797 4.84597567 -1 1 C-0.67 0.67 -0.34 0.34 0 0 Z " fill="#533B20" transform="translate(137,54)"/>
<path d="M0 0 C0.86625 0.3403125 0.86625 0.3403125 1.75 0.6875 C1.440625 1.368125 1.13125 2.04875 0.8125 2.75 C-0.38370649 6.05715912 -0.84005397 9.20295878 -1.25 12.6875 C-3.87386487 9.62632432 -4.25 8.95576873 -4.25 4.6875 C-4.91 4.0275 -5.57 3.3675 -6.25 2.6875 C-2.80384615 -0.38942308 -2.80384615 -0.38942308 0 0 Z " fill="#242522" transform="translate(127.25,113.3125)"/>
<path d="M0 0 C5.63281599 -0.2396943 10.54538831 0.61470179 16 2 C16 2.66 16 3.32 16 4 C15.07767578 3.98259766 15.07767578 3.98259766 14.13671875 3.96484375 C12.92435547 3.95130859 12.92435547 3.95130859 11.6875 3.9375 C10.88699219 3.92589844 10.08648437 3.91429687 9.26171875 3.90234375 C6.83138666 3.90342145 6.83138666 3.90342145 4 5 C3.01 4.34 2.02 3.68 1 3 C1.33 2.67 1.66 2.34 2 2 C1.34 1.34 0.68 0.68 0 0 Z " fill="#472712" transform="translate(106,313)"/>
<path d="M0 0 C2.04119788 1.61594832 4.04072937 3.2856382 6 5 C6 5.66 6 6.32 6 7 C6.66 7 7.32 7 8 7 C7.67 7.66 7.34 8.32 7 9 C6.34 9 5.68 9 5 9 C5 8.34 5 7.68 5 7 C3.68 7 2.36 7 1 7 C1 7.66 1 8.32 1 9 C0.34 8.67 -0.32 8.34 -1 8 C-0.67 5.36 -0.34 2.72 0 0 Z " fill="#402C16" transform="translate(269,139)"/>
<path d="M0 0 C2.06363112 0.45321328 4.12586507 0.91279106 6.1875 1.375 C7.33605469 1.63023438 8.48460937 1.88546875 9.66796875 2.1484375 C12.58807348 2.89472452 15.23953389 3.80431788 18 5 C14.6951021 6.07868195 12.38236521 5.90419019 9 5.1875 C7.7315625 4.93033203 7.7315625 4.93033203 6.4375 4.66796875 C4.0852168 4.02335268 2.1326998 3.17002281 0 2 C0 1.34 0 0.68 0 0 Z " fill="#572A0D" transform="translate(238,125)"/>
<path d="M0 0 C2 1 4 2 6 3 C6.12375 3.804375 6.2475 4.60875 6.375 5.4375 C6.72567164 8.15983399 6.72567164 8.15983399 9.0625 9.3125 C9.701875 9.539375 10.34125 9.76625 11 10 C11 10.99 11 11.98 11 13 C10.34 13 9.68 13 9 13 C7.39365985 11.26608049 5.8624713 9.461909 4.375 7.625 C3.55773437 6.62726563 2.74046875 5.62953125 1.8984375 4.6015625 C0 2 0 2 0 0 Z " fill="#5E3013" transform="translate(250,208)"/>
<path d="M0 0 C0.36625971 4.51720311 0.36625971 4.51720311 -1.375 6.8125 C-3 8 -3 8 -5 8 C-5 10.31 -5 12.62 -5 15 C-5.33 15 -5.66 15 -6 15 C-7 7.375 -7 7.375 -7 4 C-5.35 4.33 -3.7 4.66 -2 5 C-2 4.01 -2 3.02 -2 2 C-3.32 1.67 -4.64 1.34 -6 1 C-1.125 0 -1.125 0 0 0 Z " fill="#613719" transform="translate(211,68)"/>
<path d="M0 0 C3.3 0.66 6.6 1.32 10 2 C10 2.99 10 3.98 10 5 C8.35 4.67 6.7 4.34 5 4 C4.67 4.66 4.34 5.32 4 6 C2 4.6875 2 4.6875 0 3 C0 2.01 0 1.02 0 0 Z M0 5 C2 6 2 6 2 6 Z " fill="#2B2C27" transform="translate(122,309)"/>
<path d="M0 0 C0.33 0.66 0.66 1.32 1 2 C0.34 1.67 -0.32 1.34 -1 1 C-0.67 0.67 -0.34 0.34 0 0 Z M-5 2 C-0.48349806 2.53135317 2.42058156 4.23408575 6 7 C6.33 7.99 6.66 8.98 7 10 C2.50202887 8.31326082 -1.72886302 6.18326108 -6 4 C-5.67 3.34 -5.34 2.68 -5 2 Z " fill="#563318" transform="translate(60,286)"/>
<path d="M0 0 C0 0.66 0 1.32 0 2 C-5.28 2 -10.56 2 -16 2 C-16 1.34 -16 0.68 -16 0 C-14.27185839 -0.19672365 -12.54240803 -0.38196799 -10.8125 -0.5625 C-9.84957031 -0.66691406 -8.88664063 -0.77132812 -7.89453125 -0.87890625 C-5.05766623 -0.99758751 -2.74576329 -0.67765639 0 0 Z " fill="#DED6C8" transform="translate(210,169)"/>
<path d="M0 0 C5.67276511 -0.29341888 8.99067246 -0.00559652 14 3 C13.34 3.66 12.68 4.32 12 5 C11.67 4.67 11.34 4.34 11 4 C9.72125 4.061875 8.4425 4.12375 7.125 4.1875 C4.9453125 4.23046875 4.9453125 4.23046875 3 4 C1 2 1 2 0 0 Z " fill="#4E2D16" transform="translate(191,7)"/>
<path d="M0 0 C0.66 0.99 1.32 1.98 2 3 C2 2.34 2 1.68 2 1 C2.66 1 3.32 1 4 1 C3.05358987 4.26941682 2.58815053 5.66822278 -0.4375 7.375 C-3 8 -3 8 -6 7 C-5.67 6.34 -5.34 5.68 -5 5 C-4.34 5 -3.68 5 -3 5 C-2.5359375 4.0409375 -2.5359375 4.0409375 -2.0625 3.0625 C-1 1 -1 1 0 0 Z " fill="#432F19" transform="translate(27,180)"/>
<path d="M0 0 C0.99 0.33 1.98 0.66 3 1 C2.67 2.65 2.34 4.3 2 6 C3.32 6.33 4.64 6.66 6 7 C4.02 7.99 4.02 7.99 2 9 C1.236875 8.21625 0.47375 7.4325 -0.3125 6.625 C-2.90891805 3.92742283 -2.90891805 3.92742283 -6 2 C-4.35 2 -2.7 2 -1 2 C-0.67 1.34 -0.34 0.68 0 0 Z " fill="#523418" transform="translate(202,24)"/>
<path d="M0 0 C0.66 0.33 1.32 0.66 2 1 C0.01939905 3.54648693 -1.93449845 5.93631794 -4.25 8.1875 C-6.2315315 9.81989123 -6.2315315 9.81989123 -6 12 C-7.32 11.34 -8.64 10.68 -10 10 C-9.34 10 -8.68 10 -8 10 C-7.71125 9.236875 -7.4225 8.47375 -7.125 7.6875 C-5.85797329 4.66071397 -4.82949442 2.51843401 -2 0.75 C-1.34 0.5025 -0.68 0.255 0 0 Z " fill="#E0D7C9" transform="translate(132,298)"/>
<path d="M0 0 C0.66 0.33 1.32 0.66 2 1 C1.67 1.66 1.34 2.32 1 3 C1.66 3 2.32 3 3 3 C3 4.32 3 5.64 3 7 C0.03 6.67 -2.94 6.34 -6 6 C-5.67 5.34 -5.34 4.68 -5 4 C-4.01 4 -3.02 4 -2 4 C-2 3.01 -2 2.02 -2 1 C-1.34 0.67 -0.68 0.34 0 0 Z " fill="#4A3726" transform="translate(147,47)"/>
<path d="M0 0 C0.93423645 3.01031744 1.04449911 3.86650268 0 7 C-1.65204456 7.70211894 -3.31923769 8.36971413 -5 9 C-5.33 9.66 -5.66 10.32 -6 11 C-6.66 11 -7.32 11 -8 11 C-6.63629701 8.00779732 -5.05091917 5.70973471 -2.875 3.25 C-2.33617187 2.63640625 -1.79734375 2.0228125 -1.2421875 1.390625 C-0.62730469 0.70226562 -0.62730469 0.70226562 0 0 Z " fill="#56341A" transform="translate(57,139)"/>
<path d="M0 0 C2.33944736 0.28730055 4.6739143 0.61936779 7 1 C7 1.33 7 1.66 7 2 C1.16200408 3.69832609 -3.93107371 4.25287193 -10 4 C-10 3.34 -10 2.68 -10 2 C-9.04287109 1.90912109 -9.04287109 1.90912109 -8.06640625 1.81640625 C-6.82697266 1.69072266 -6.82697266 1.69072266 -5.5625 1.5625 C-4.73878906 1.48128906 -3.91507813 1.40007812 -3.06640625 1.31640625 C-1.01337975 1.21069185 -1.01337975 1.21069185 0 0 Z " fill="#522E12" transform="translate(213,318)"/>
<path d="M0 0 C3.3 0 6.6 0 10 0 C10 0.99 10 1.98 10 3 C7.29120665 4.35439668 4.99066732 4.06501451 2 4 C2 3.01 2 2.02 2 1 C1.34 0.67 0.68 0.34 0 0 Z " fill="#38382F" transform="translate(190,315)"/>
<path d="M0 0 C1.3805087 3.76668598 0.59568159 6.44789173 -0.4375 10.25 C-0.72496094 11.32765625 -1.01242188 12.4053125 -1.30859375 13.515625 C-1.53675781 14.33546875 -1.76492187 15.1553125 -2 16 C-2.33 16 -2.66 16 -3 16 C-3.02696365 14.20841511 -3.04637917 12.41671527 -3.0625 10.625 C-3.07410156 9.62726563 -3.08570313 8.62953125 -3.09765625 7.6015625 C-3 5 -3 5 -2 3 C-1.34 3 -0.68 3 0 3 C0 2.01 0 1.02 0 0 Z " fill="#613615" transform="translate(244,216)"/>
<path d="M0 0 C0.66 0 1.32 0 2 0 C1.67 2.97 1.34 5.94 1 9 C0.01 8.34 -0.98 7.68 -2 7 C-2.99 7.495 -2.99 7.495 -4 8 C-2.25 2.25 -2.25 2.25 0 0 Z " fill="#6F451B" transform="translate(249,199)"/>
<path d="M0 0 C0.99 0.33 1.98 0.66 3 1 C2.67 1.99 2.34 2.98 2 4 C2.66 4.66 3.32 5.32 4 6 C3.67 6.99 3.34 7.98 3 9 C-1.8 6.53846154 -1.8 6.53846154 -2.8125 3.8125 C-2.874375 3.214375 -2.93625 2.61625 -3 2 C-2.01 1.34 -1.02 0.68 0 0 Z " fill="#342F22" transform="translate(203,114)"/>
<path d="M0 0 C0.69480469 0.49113281 1.38960938 0.98226563 2.10546875 1.48828125 C5.47539763 3.24828459 7.54310384 3.31176581 11.3125 3.1875 C12.38113281 3.16042969 13.44976562 3.13335937 14.55078125 3.10546875 C15.35902344 3.07066406 16.16726562 3.03585937 17 3 C16.67 3.66 16.34 4.32 16 5 C12.83984375 5.4140625 12.83984375 5.4140625 8.9375 5.625 C7.64714844 5.69976562 6.35679688 5.77453125 5.02734375 5.8515625 C4.02832031 5.90054687 3.02929688 5.94953125 2 6 C2 5.01 2 4.02 2 3 C1.34 3 0.68 3 0 3 C0 2.01 0 1.02 0 0 Z " fill="#6F4013" transform="translate(81,270)"/>
<path d="M0 0 C0.33 0 0.66 0 1 0 C1.24954005 1.43410368 1.47392642 2.87260072 1.6875 4.3125 C1.81511719 5.11300781 1.94273438 5.91351563 2.07421875 6.73828125 C2 9 2 9 0.51953125 10.79296875 C0.01808594 11.19128906 -0.48335937 11.58960938 -1 12 C-1.66 11.67 -2.32 11.34 -3 11 C-2.44894091 7.0507432 -1.61064629 3.65079826 0 0 Z " fill="#543118" transform="translate(46,154)"/>
<path d="M0 0 C2 1 2 1 3 3 C2.01 3 1.02 3 0 3 C-0.66 4.65 -1.32 6.3 -2 8 C-2.99 7.67 -3.98 7.34 -5 7 C-5.33 6.01 -5.66 5.02 -6 4 C-4.02 2.68 -2.04 1.36 0 0 Z " fill="#412E18" transform="translate(68,131)"/>
<path d="M0 0 C0.66 0 1.32 0 2 0 C2 0.99 2 1.98 2 3 C3.32 3.33 4.64 3.66 6 4 C4.02 5.32 2.04 6.64 0 8 C-0.33 7.34 -0.66 6.68 -1 6 C-0.34 6 0.32 6 1 6 C1 5.34 1 4.68 1 4 C0.01 4 -0.98 4 -2 4 C-1.34 2.68 -0.68 1.36 0 0 Z " fill="#422D16" transform="translate(269,289)"/>
<path d="M0 0 C2.83374881 3.20336822 3.5205537 5.78087253 4 10 C3.34 9.67 2.68 9.34 2 9 C2 8.34 2 7.68 2 7 C0.35 7.33 -1.3 7.66 -3 8 C-3 6.68 -3 5.36 -3 4 C-2.01 4 -1.02 4 0 4 C0 2.68 0 1.36 0 0 Z " fill="#4E3515" transform="translate(317,209)"/>
<path d="M0 0 C2.31 0 4.62 0 7 0 C5.68 2.31 4.36 4.62 3 7 C2.01 6.34 1.02 5.68 0 5 C-0.1875 2.375 -0.1875 2.375 0 0 Z " fill="#EDE0D2" transform="translate(179,183)"/>
<path d="M0 0 C2.50298434 2.93828597 3.46930939 5.17902761 4 9 C1.0625 7.6875 1.0625 7.6875 -2 6 C-2.33 5.01 -2.66 4.02 -3 3 C-2.01 2.01 -1.02 1.02 0 0 Z " fill="#4C2F1A" transform="translate(278,149)"/>
<path d="M0 0 C0 2 0 4 0 6 C-2.64 5.67 -5.28 5.34 -8 5 C-8 4.34 -8 3.68 -8 3 C-5.36 2.01 -2.72 1.02 0 0 Z " fill="#212018" transform="translate(130,312)"/>
<path d="M0 0 C0.99 0.33 1.98 0.66 3 1 C2.875 3.25 2.875 3.25 2 6 C-1.0625 8.3125 -1.0625 8.3125 -4 10 C-3.67 8.35 -3.34 6.7 -3 5 C-2.01 5 -1.02 5 0 5 C0 3.35 0 1.7 0 0 Z " fill="#513616" transform="translate(294,271)"/>
<path d="M0 0 C0.66 0 1.32 0 2 0 C1.67 0.66 1.34 1.32 1 2 C0.67 1.34 0.34 0.68 0 0 Z M-2 2 C-1.01 2 -0.02 2 1 2 C1.66 4.31 2.32 6.62 3 9 C2.34 9.66 1.68 10.32 1 11 C-1.0625 8.1875 -1.0625 8.1875 -3 5 C-2.67 4.01 -2.34 3.02 -2 2 Z " fill="#292923" transform="translate(213,122)"/>
<path d="M0 0 C0.99 0 1.98 0 3 0 C5.5915262 5.93891422 6.40368295 10.54107286 6 17 C5.67 17 5.34 17 5 17 C4.89042969 16.35933594 4.78085938 15.71867187 4.66796875 15.05859375 C3.67539672 9.6438309 2.37541347 4.96677361 0 0 Z " fill="#663B10" transform="translate(134,69)"/>
<path d="M0 0 C0.66 0 1.32 0 2 0 C2.99 2.97 3.98 5.94 5 9 C1.00003714 7.66667905 0.16217663 5.5042173 -2 2 C-1.34 2 -0.68 2 0 2 C0 1.34 0 0.68 0 0 Z " fill="#27180D" transform="translate(204,11)"/>
<path d="M0 0 C0.99 0.33 1.98 0.66 3 1 C3 1.99 3 2.98 3 4 C3.66 4 4.32 4 5 4 C5.33 5.65 5.66 7.3 6 9 C3.69 7.02 1.38 5.04 -1 3 C-0.67 2.01 -0.34 1.02 0 0 Z " fill="#523511" transform="translate(94,236)"/>
<path d="M0 0 C1.32 1.32 2.64 2.64 4 4 C3.34 4.66 2.68 5.32 2 6 C1.28072705 8.31765729 0.6090107 10.65095874 0 13 C-0.66 12.67 -1.32 12.34 -2 12 C-1.34 8.04 -0.68 4.08 0 0 Z " fill="#E0D4C5" transform="translate(118,188)"/>
<path d="M0 0 C0 0.66 0 1.32 0 2 C0.99 2.33 1.98 2.66 3 3 C3.33 3.99 3.66 4.98 4 6 C-0.50802601 4.74194623 -3.4912812 3.09592835 -7 0 C-2.25 -1.125 -2.25 -1.125 0 0 Z " fill="#26180E" transform="translate(169,95)"/>
<path d="M0 0 C3.8063457 0.67170806 7.35206816 1.72746564 11 3 C11 3.99 11 4.98 11 6 C6.80639551 5.32902328 3.59665648 3.1441606 0 1 C0 0.67 0 0.34 0 0 Z " fill="#633A16" transform="translate(75,303)"/>
<path d="M0 0 C-1.44950455 3.7910119 -3.15172566 7.3874638 -5 11 C-6.2380014 7.42355152 -5.74926071 4.66305234 -5 1 C-2 0 -2 0 0 0 Z " fill="#5C3414" transform="translate(323,238)"/>
<path d="M0 0 C6.875 3.625 6.875 3.625 8 7 C6.68 7.33 5.36 7.66 4 8 C0 2.25 0 2.25 0 0 Z " fill="#D9D1C4" transform="translate(198,118)"/>
<path d="M0 0 C2.86724686 0.57344937 3.8614515 0.8614515 6 3 C6.625 5.125 6.625 5.125 7 7 C6.01 7 5.02 7 4 7 C0 2.65714286 0 2.65714286 0 0 Z " fill="#6D461B" transform="translate(155,89)"/>
<path d="M0 0 C0.66 0.33 1.32 0.66 2 1 C0.625 3 0.625 3 -1 5 C-1.66 5 -2.32 5 -3 5 C-3 5.66 -3 6.32 -3 7 C-4.32 7 -5.64 7 -7 7 C-7 7.66 -7 8.32 -7 9 C-7.66 8.67 -8.32 8.34 -9 8 C-6.14723863 5.06799526 -3.34920216 2.35684596 0 0 Z " fill="#5E3A10" transform="translate(146,11)"/>
<path d="M0 0 C-0.33 1.32 -0.66 2.64 -1 4 C-1.99 3.67 -2.98 3.34 -4 3 C-6.14255793 3.38932856 -6.14255793 3.38932856 -8 4 C-8 3.01 -8 2.02 -8 1 C-5.29120665 -0.35439668 -2.99066732 -0.06501451 0 0 Z " fill="#282115" transform="translate(82,207)"/>
<path d="M0 0 C0.80566406 0.17144531 1.61132812 0.34289062 2.44140625 0.51953125 C4.4375 1.1875 4.4375 1.1875 5.4375 3.1875 C3.99913249 3.07291307 2.56179034 2.94540884 1.125 2.8125 C0.32449219 2.74289062 -0.47601563 2.67328125 -1.30078125 2.6015625 C-3.5625 2.1875 -3.5625 2.1875 -6.5625 0.1875 C-3.9640401 -1.11172995 -2.80288549 -0.62536289 0 0 Z " fill="#DAD1C3" transform="translate(147.5625,311.8125)"/>
<path d="M0 0 C2.44775434 1.22387717 4.73783745 2.45220457 7 4 C7 4.99 7 5.98 7 7 C3.54074837 5.7508258 0.85306797 4.32472205 -2 2 C-1.34 2 -0.68 2 0 2 C0 1.34 0 0.68 0 0 Z " fill="#5F3E10" transform="translate(47,282)"/>
<path d="M0 0 C0.33 0 0.66 0 1 0 C1 3.63 1 7.26 1 11 C-0.98 11.99 -0.98 11.99 -3 13 C-2.01 8.71 -1.02 4.42 0 0 Z " fill="#653E1C" transform="translate(262,247)"/>
<path d="M0 0 C-0.33 1.65 -0.66 3.3 -1 5 C-3.31 4.67 -5.62 4.34 -8 4 C-3.375 0 -3.375 0 0 0 Z " fill="#55361B" transform="translate(115,118)"/>
<path d="M0 0 C1.32 0.33 2.64 0.66 4 1 C2.625 2.5 2.625 2.5 1 4 C0.34 4 -0.32 4 -1 4 C-1 4.66 -1 5.32 -1 6 C-1.66 6 -2.32 6 -3 6 C-3.33 4.35 -3.66 2.7 -4 1 C-2.68 1.33 -1.36 1.66 0 2 C0 1.34 0 0.68 0 0 Z " fill="#432D15" transform="translate(278,286)"/>
<path d="M0 0 C3 2 3 2 3.6875 4.625 C3.8421875 5.800625 3.8421875 5.800625 4 7 C2.68 7.33 1.36 7.66 0 8 C0 5.36 0 2.72 0 0 Z " fill="#2A1D0F" transform="translate(69,256)"/>
<path d="M0 0 C1.33333333 2.66666667 2.66666667 5.33333333 4 8 C2.68 8.99 1.36 9.98 0 11 C-1.37432457 7.18243176 -0.67975039 3.92744671 0 0 Z " fill="#3D3831" transform="translate(229,230)"/>
<path d="M0 0 C1.70884005 1.62339805 3.37446717 3.29319053 5 5 C5 5.66 5 6.32 5 7 C3.68 7.33 2.36 7.66 1 8 C0.67 5.36 0.34 2.72 0 0 Z " fill="#DDD7CB" transform="translate(168,197)"/>
<path d="M0 0 C4.875 3.625 4.875 3.625 6 7 C5.01 7.495 5.01 7.495 4 8 C3.67 7.34 3.34 6.68 3 6 C2.01 5.67 1.02 5.34 0 5 C-0.75 3 -0.75 3 -1 1 C-0.67 0.67 -0.34 0.34 0 0 Z " fill="#583713" transform="translate(302,184)"/>
<path d="M0 0 C2.97 0.33 5.94 0.66 9 1 C5.57905758 3.28062828 4.31812778 3.21925007 0.3125 3.125 C-1.17830078 3.09792969 -1.17830078 3.09792969 -2.69921875 3.0703125 C-3.45847656 3.04710937 -4.21773437 3.02390625 -5 3 C-5 2.67 -5 2.34 -5 2 C-3.35 1.67 -1.7 1.34 0 1 C0 0.67 0 0.34 0 0 Z " fill="#0E0D0F" transform="translate(175,21)"/>
<path d="M0 0 C0.66 0.66 1.32 1.32 2 2 C1.60495559 4.9628331 0.40182371 7.38326241 -1 10 C-1.66 10 -2.32 10 -3 10 C-2.39009109 6.44219804 -1.4216319 3.3171411 0 0 Z " fill="#613A1D" transform="translate(9,211)"/>
<path d="M0 0 C1.00496852 3.01490557 1.10335303 5.04181692 1.0625 8.1875 C1.05347656 9.08855469 1.04445313 9.98960937 1.03515625 10.91796875 C1.02355469 11.60503906 1.01195312 12.29210937 1 13 C0.67 12.34 0.34 11.68 0 11 C-0.66 11 -1.32 11 -2 11 C-1.814375 10.38125 -1.62875 9.7625 -1.4375 9.125 C-0.76313824 6.95839822 -0.76313824 6.95839822 -2 5 C-1.0625 2.375 -1.0625 2.375 0 0 Z " fill="#16130C" transform="translate(256,178)"/>
<path d="M0 0 C1.70840281 1.63412443 2.93453047 2.86906094 4 5 C3.01 5.99 2.02 6.98 1 8 C0.34 7.67 -0.32 7.34 -1 7 C-0.67 4.69 -0.34 2.38 0 0 Z " fill="#F8EAD3" transform="translate(211,131)"/>
<path d="M0 0 C3.37462715 0.54723683 5.08235 1.0549 8 3 C7.01 3.33 6.02 3.66 5 4 C4.01 3.34 3.02 2.68 2 2 C1.67 3.32 1.34 4.64 1 6 C0.67 6 0.34 6 0 6 C0 4.02 0 2.04 0 0 Z " fill="#62390F" transform="translate(192,110)"/>
<path d="M0 0 C-0.99 0.33 -1.98 0.66 -3 1 C-3.73323796 3.01508358 -3.73323796 3.01508358 -4 5 C-4 4.34 -4 3.68 -4 3 C-6.31 3.33 -8.62 3.66 -11 4 C-7.04396675 0.96704118 -5.03239385 -0.13243142 0 0 Z " fill="#492B12" transform="translate(134,109)"/>
<path d="M0 0 C0.99 0 1.98 0 3 0 C3.33 1.65 3.66 3.3 4 5 C1.69 5 -0.62 5 -3 5 C-3 4.34 -3 3.68 -3 3 C-2.34 3 -1.68 3 -1 3 C-0.67 2.01 -0.34 1.02 0 0 Z " fill="#2C1B0C" transform="translate(142,47)"/>
<path d="M0 0 C0.66 0.33 1.32 0.66 2 1 C1.6875 3.875 1.6875 3.875 1 7 C0.01 7.66 -0.98 8.32 -2 9 C-2.20140476 5.37471432 -1.85776765 3.13498292 0 0 Z " fill="#353127" transform="translate(132,291)"/>
<path d="M0 0 C0.66 0 1.32 0 2 0 C2.99 2.97 3.98 5.94 5 9 C4.34 9 3.68 9 3 9 C2.67 8.01 2.34 7.02 2 6 C1.34 5.67 0.68 5.34 0 5 C0 3.35 0 1.7 0 0 Z " fill="#502F16" transform="translate(312,200)"/>
<path d="M0 0 C0.47050781 0.33773437 0.94101563 0.67546875 1.42578125 1.0234375 C2.35970703 1.69246094 2.35970703 1.69246094 3.3125 2.375 C4.23482422 3.03628906 4.23482422 3.03628906 5.17578125 3.7109375 C6.7652392 4.83410907 8.38062171 5.92041447 10 7 C7.03 6.67 4.06 6.34 1 6 C0.67 4.02 0.34 2.04 0 0 Z " fill="#2B1C0A" transform="translate(140,69)"/>
<path d="M0 0 C-2.91238742 2.48092261 -5.15072555 3.70390197 -9 4 C-9.99 3.34 -10.98 2.68 -12 2 C-7.8803623 0.70756464 -4.33168317 -0.26252625 0 0 Z " fill="#603511" transform="translate(255,306)"/>
<path d="M0 0 C1.32 0.66 2.64 1.32 4 2 C1.69 3.32 -0.62 4.64 -3 6 C-3.66 5.34 -4.32 4.68 -5 4 C-3.35 3.67 -1.7 3.34 0 3 C0 2.01 0 1.02 0 0 Z " fill="#4B2B0F" transform="translate(259,300)"/>
<path d="M0 0 C-5.75 4 -5.75 4 -8 4 C-8 2.68 -8 1.36 -8 0 C-4.94736336 -0.98120464 -3.05263664 -0.98120464 0 0 Z " fill="#613B19" transform="translate(70,223)"/>
<path d="M0 0 C0.33 0.66 0.66 1.32 1 2 C1.66 2 2.32 2 3 2 C3 3.65 3 5.3 3 7 C2.34 6.34 1.68 5.68 1 5 C0.01 5.495 0.01 5.495 -1 6 C-1.33 4.35 -1.66 2.7 -2 1 C-1.34 0.67 -0.68 0.34 0 0 Z " fill="#694F22" transform="translate(78,209)"/>
<path d="M0 0 C0.66 0.99 1.32 1.98 2 3 C1.125 5.6875 1.125 5.6875 0 8 C-0.66 8 -1.32 8 -2 8 C-1.125 1.125 -1.125 1.125 0 0 Z " fill="#2D2012" transform="translate(252,200)"/>
<path d="M0 0 C0.66 0 1.32 0 2 0 C0.92598892 2.91517292 0.22189824 4.77810176 -2 7 C-2.66 7 -3.32 7 -4 7 C-2.92598892 4.08482708 -2.22189824 2.22189824 0 0 Z " fill="#53370E" transform="translate(19,191)"/>
<path d="M0 0 C1.98 0.495 1.98 0.495 4 1 C4 2.65 4 4.3 4 6 C2.68 6.33 1.36 6.66 0 7 C0.33 5.68 0.66 4.36 1 3 C0.34 2.67 -0.32 2.34 -1 2 C-0.67 1.34 -0.34 0.68 0 0 Z " fill="#342C22" transform="translate(20,188)"/>
<path d="M0 0 C1.485 0.99 1.485 0.99 3 2 C3.1875 5.125 3.1875 5.125 3 8 C2.01 8.33 1.02 8.66 0 9 C0 6.03 0 3.06 0 0 Z " fill="#2E2D25" transform="translate(134,125)"/>
<path d="M0 0 C2.31 0.33 4.62 0.66 7 1 C7 2.65 7 4.3 7 6 C6.67 5.34 6.34 4.68 6 4 C3.47266765 3.34444881 3.47266765 3.34444881 1 3 C0.67 2.01 0.34 1.02 0 0 Z " fill="#4F3E2D" transform="translate(182,104)"/>
<path d="M0 0 C2.31 0.66 4.62 1.32 7 2 C7.33 3.32 7.66 4.64 8 6 C7.67 5.34 7.34 4.68 7 4 C4.67843403 3.59270772 2.3431213 3.25561323 0 3 C0 2.01 0 1.02 0 0 Z " fill="#1E1A11" transform="translate(148,83)"/>
<path d="M0 0 C0.66 0.33 1.32 0.66 2 1 C1.67 1.99 1.34 2.98 1 4 C0.34 4 -0.32 4 -1 4 C-1.33 4.66 -1.66 5.32 -2 6 C-2 5.34 -2 4.68 -2 4 C-2.99 3.67 -3.98 3.34 -5 3 C-2.625 1.4375 -2.625 1.4375 0 0 Z " fill="#1E180F" transform="translate(287,222)"/>
<path d="M0 0 C2.475 0.99 2.475 0.99 5 2 C3.68 3.32 2.36 4.64 1 6 C-0.0625 4.125 -0.0625 4.125 -1 2 C-0.67 1.34 -0.34 0.68 0 0 Z " fill="#462E1B" transform="translate(70,215)"/>
<path d="M0 0 C0.99 0 1.98 0 3 0 C3 1.65 3 3.3 3 5 C1.68 5 0.36 5 -1 5 C-0.67 3.35 -0.34 1.7 0 0 Z " fill="#141113" transform="translate(205,25)"/>
<path d="M0 0 C0.66 0 1.32 0 2 0 C2.33 0.99 2.66 1.98 3 3 C2.01 3 1.02 3 0 3 C0 2.01 0 1.02 0 0 Z M0 4 C0 4.99 0 5.98 0 7 C-1.32 7 -2.64 7 -4 7 C-2.68 6.01 -1.36 5.02 0 4 Z " fill="#201F1A" transform="translate(213,312)"/>
<path d="M0 0 C4.455 0.99 4.455 0.99 9 2 C5 4 5 4 1.75 3.125 C0.8425 2.75375 -0.065 2.3825 -1 2 C-0.67 1.34 -0.34 0.68 0 0 Z " fill="#52340E" transform="translate(92,310)"/>
<path d="M0 0 C2.15377564 2.62198774 3.40072174 4.64404172 4 8 C2.68 8 1.36 8 0 8 C0 5.36 0 2.72 0 0 Z " fill="#3D3A31" transform="translate(102,232)"/>
<path d="M0 0 C1.875 0.25 1.875 0.25 4 1 C5.25 3.0625 5.25 3.0625 6 5 C3.03 4.505 3.03 4.505 0 4 C0 2.68 0 1.36 0 0 Z " fill="#5F3013" transform="translate(55,230)"/>
<path d="M0 0 C2.475 0.495 2.475 0.495 5 1 C4.67 2.65 4.34 4.3 4 6 C0 1.125 0 1.125 0 0 Z " fill="#E7DACB" transform="translate(172,175)"/>
<path d="M0 0 C0.33 0 0.66 0 1 0 C1.66 3.3 2.32 6.6 3 10 C2.01 10.66 1.02 11.32 0 12 C0 8.04 0 4.08 0 0 Z " fill="#DBD0C3" transform="translate(124,143)"/>
<path d="M0 0 C0.66 0.33 1.32 0.66 2 1 C2 3.97 2 6.94 2 10 C-0.05619793 7.68677733 -0.95899829 6.44076838 -1.25 3.3125 C-1 1 -1 1 0 0 Z " fill="#343329" transform="translate(124,116)"/>
<path d="M0 0 C0.99 0.33 1.98 0.66 3 1 C3 1.66 3 2.32 3 3 C3.66 3 4.32 3 5 3 C5 3.66 5 4.32 5 5 C4.38125 4.814375 3.7625 4.62875 3.125 4.4375 C0.95839822 3.76313824 0.95839822 3.76313824 -1 5 C-0.67 3.35 -0.34 1.7 0 0 Z " fill="#2C2417" transform="translate(201,55)"/>
</svg>
